<svg xmlns="http://www.w3.org/2000/svg" viewBox="0 0 2000 446.1" style="enable-background:new 0 0 2000 446.1" xml:space="preserve"><path d="m10396.5 2058.5-321.8 135.2c-186.6 77.2-296 141.6-296 263.9 0 186.6 167.3 225.2 386.1 225.2s444.1-25.7 753-122.3c38.6 212.4 38.6 411.9 0 598.5-193.1 103-553.5 154.5-868.8 154.5-617.8 0-1087.6-334.7-1087.6-836.6 0-450.5 193.1-675.8 733.7-894.6l251-103c238.1-96.5 308.9-154.4 308.9-308.9 0-231.7-231.7-270.2-424.8-270.2-321.8 0-566.3 64.3-875.2 173.7-51.5-186.6-51.5-431.2 0-624.3C9218.9 308 9579.3 263 9959 263c611.4 0 1100.5 321.8 1100.5 901-.2 476.1-206.1 701.4-663 894.5zM4688 957.9c-135.1-38.6-231.7-45-341.1-45-527.7 0-733.7 347.5-733.7 849.5 0 559.9 205.9 901 727.2 901 154.4 0 251-19.3 347.5-45V957.9zm0 2999.1v-701.5c-141.6 38.6-289.6 45-418.3 45-881.7 0-1480.2-592.1-1480.2-1538.1 0-965.4 585.7-1499.5 1499.5-1499.5 418.3 0 830.2 57.9 1197 180.2V4607c-225.3-83.7-463.4-199.5-662.9-360.4-102.9-83.7-135.1-167.3-135.1-289.6zM1598.9 919.4c-45.1-12.9-244.6-32.2-341.1-32.2-366.9 0-566.3 109.4-566.3 366.9 0 257.4 199.5 360.4 566.3 360.4 122.3 0 263.9-12.8 341.1-19.3V919.4zm-482.7 2394c-315.4 6.4-592.1-32.2-862.4-96.5-51.5-180.2-45-444.1 0-630.7 334.7 77.2 521.3 83.7 733.7 83.7 411.9 0 611.4-167.4 611.4-508.4v-32.2c-122.3 12.9-270.3 25.7-373.3 25.7-682.2 0-1267.8-244.6-1267.8-901 0-740.1 527.7-991.1 1293.6-991.1 360.4 0 753 64.3 1113.4 173.7v1666.8c-.1 798.2-431.3 1190.7-1248.6 1210zm11764.5-2394c-399 0-662.9 315.4-662.9 868.8 0 527.7 212.4 868.8 669.3 868.8 193.1 0 328.2-32.2 508.3-103 51.6 180.2 148 386.2 283.4 559.9-251.2 128.7-495.7 199.5-894.7 199.5-881.7 0-1390.1-624.3-1390.1-1525.3 0-933.2 521.3-1525.2 1422.3-1525.2 328.3 0 630.7 57.9 875.2 193.1-109.4 141.6-231.6 334.6-302.4 559.9-225.3-90.1-321.8-96.5-508.4-96.5zm-6159 1216.3c58 354 270.3 566.4 592.1 566.4 360.4 0 502-244.6 514.9-566.4h-1107zm604.9 1177.7c-862.4 0-1390.1-579.2-1390.1-1544.6S6496.4 262.9 7455.4 262.9c328.2 0 682.2 57.9 907.4 167.3 45 186.7 45 431.2 0 617.8-296-83.6-547-135.1-823.8-135.1-444.1 0-753 167.3-817.3 637.1h1814.9c25.8 70.8 32.2 308.9 32.2 405.4-.1 868.9-489.2 1358-1242.2 1358zm7787.1-2406.9c-443.8 0-579.2 360.4-579.2 875.3 0 502 135.4 888.1 579.2 888.1 457.1 0 585.8-373.3 585.8-888.1.1-540.7-148-875.3-585.8-875.3zm0 2406.9c-894.6 0-1396.3-611.4-1396.3-1531.7 0-933.2 527.7-1518.8 1396.3-1518.8 901.2 0 1403 598.5 1403 1518.8 0 926.8-501.7 1531.7-1403 1531.7zm-24339-691.4-545.9-314.2V296.1l586.4-.8c57.7-.1 104.5 46.7 104.5 104.3V2547c0 82.3-79.5 112.3-145 75zm-791.9 2875.8c-404.3 0-846.2-37.2-1282.9-111.4 442 567.4 1142.7 933.4 1924.2 933.4 576.7 0 1153.5-217.4 1541.6-540.9 70.1-58.3 124-63.7 177.9-10.6 53.9 53 48.5 106.1-10.8 175-506.7 588.7-1250.5 986.4-2129.1 970.5-1148.1-21.3-2123.7-747.8-2495.6-1755.4-339.6-106.1-652.2-233.3-927.1-387.1-75.5-42.5-102.4-95.5-75.5-159.1 27-58.3 80.9-79.5 156.3-58.3 237.2 69 479.7 127.3 733 180.3-27-132.6-43.1-270.5-43.1-413.7-21.6-928.1 474.3-1808.4 1239.7-2291 75.5-47.8 140.2-47.8 183.3 10.6 43.1 58.3 37.7 111.3-27 169.7-485.1 434.9-754.6 1081.9-754.6 1723.6 0 323.5 64.7 636.4 188.7 917.5 253.3 21.2 528.2 37.1 830.1 37.1 1962 0 3616.7-647 3616.7-1495.5 0-429.6-544.4-859.1-1191.2-1145.5-156.3-68.9-172.5-116.6-150.9-185.6 21.5-63.6 91.6-84.9 172.5-58.3 1132 371.1 1989 980.9 1989 1718.1 0 1002.3-1617 1776.6-3665.2 1776.6zm-418.5-3650.3v-1485c0-37.2 30.1-67.3 67.3-67.3h413.1V2202l-412.4-237.4c-42.1-24-68-61.7-68-117.1zM-357.6 3274.8c-379.7 0-598.5-148-804.5-411.9-19.3 135.1-45 244.5-90.1 379.7-77.2 25.7-212.4 32.2-328.2 32.2-109.4 0-251-12.9-321.8-32.2V327.3c96.5-25.8 257.4-32.2 399-32.2 135.1 0 315.4 12.8 399 32.2v1422.3c0 566.3 296.1 868.8 695.1 868.8 70.8 0 193.1 0 263.9-12.8 45 186.6 51.5 456.9 12.9 643.5-45.1 12.9-160.9 25.7-225.3 25.7zM-3987.3 912.9c-83.7 0-212.4 0-302.5 32.2v1602.5c109.4 58 263.9 90.1 463.4 90.1 399 0 611.4-276.8 611.4-798.1-.1-547-251-926.7-772.3-926.7zm296 2387.6c-231.7 0-456.9-51.5-598.5-122.3V4607c-225.2-83.7-463.4-199.5-662.9-360.4-103-83.6-135.1-167.3-135.1-289.6V430.2c212.4-90.1 643.6-167.3 1055.5-167.3 1042.6 0 1641.1 637.1 1641.1 1557.4-.1 913.9-424.8 1480.2-1300.1 1480.2" style="fill:#ce1c30" transform="matrix(.06707 0 0 -.06707 892.286 463.71)"/></svg>